HIERARCHY
ROOT root
{
	OFFSET	0	13.1	24.9
	CHANNELS 6  Xposition Yposition Zposition Xrotation Yrotation Zrotation
	JOINT spine_1
	{
		OFFSET	0	9.99999	0
		CHANNELS 3  Xrotation Yrotation Zrotation
		JOINT spine_2
		{
			OFFSET	0	112	-10
			CHANNELS 3  Xrotation Yrotation Zrotation
			JOINT spine_3
			{
				OFFSET	0	206.5	19.3
				CHANNELS 3  Xrotation Yrotation Zrotation
				JOINT spine_4
				{
					OFFSET	0	110.4	14.6
					CHANNELS 3  Xrotation Yrotation Zrotation
					JOINT neck_1
					{
						OFFSET	0	71.8	-50.3
						CHANNELS 3  Xrotation Yrotation Zrotation
						JOINT neck_2
						{
							OFFSET	0	86.2	-25.8
							CHANNELS 3  Xrotation Yrotation Zrotation
							JOINT head_ee
							{
								OFFSET	0	179.8	-8.7
								CHANNELS 3  Xrotation Yrotation Zrotation
								End Site
								{
									OFFSET	1	0	0
								}
							}
						}
					}
					JOINT left_clavicle
					{
						OFFSET	-43.2	22.4	-70.8
						CHANNELS 3  Xrotation Yrotation Zrotation
						JOINT left_shoulder
						{
							OFFSET	-93.9	-5.79999	48.7
							CHANNELS 3  Xrotation Yrotation Zrotation
							JOINT left_elbow
							{
								OFFSET	-291.4	-30.8	15.2
								CHANNELS 3  Xrotation Yrotation Zrotation
								JOINT left_lowarm_twist
								{
									OFFSET	-110.7	-3.89999	13.6
									CHANNELS 3  Xrotation Yrotation Zrotation
									JOINT left_hand
									{
										OFFSET	-110.7	-3.89999	13.6
										CHANNELS 3  Xrotation Yrotation Zrotation
										JOINT left_ee
										{
											OFFSET	-80.8	-5.10001	12.1
											CHANNELS 3  Xrotation Yrotation Zrotation
											End Site
											{
												OFFSET	1	0	0
											}
										}
									}
								}
							}
						}
					}
					JOINT right_clavicle
					{
						OFFSET	43.2	22.4	-70.8
						CHANNELS 3  Xrotation Yrotation Zrotation
						JOINT right_shoulder
						{
							OFFSET	93.9	-5.79999	48.7
							CHANNELS 3  Xrotation Yrotation Zrotation
							JOINT right_elbow
							{
								OFFSET	291.4	-30.8	15.2
								CHANNELS 3  Xrotation Yrotation Zrotation
								JOINT right_lowarm_twist
								{
									OFFSET	110.7	-3.89999	13.6
									CHANNELS 3  Xrotation Yrotation Zrotation
									JOINT right_hand
									{
										OFFSET	110.7	-3.89999	13.6
										CHANNELS 3  Xrotation Yrotation Zrotation
										JOINT right_ee
										{
											OFFSET	80.8	-5.10001	12.1
											CHANNELS 3  Xrotation Yrotation Zrotation
											End Site
											{
												OFFSET	1	0	0
											}
										}
									}
								}
							}
						}
					}
				}
			}
		}
	}
	JOINT left_hip
	{
		OFFSET	-82.8	-127.5	0.300001
		CHANNELS 3  Xrotation Yrotation Zrotation
		JOINT left_knee
		{
			OFFSET	-28.2	-396.7	2.2
			CHANNELS 3  Xrotation Yrotation Zrotation
			JOINT left_ankle
			{
				OFFSET	-11.7	-411.3	35.4
				CHANNELS 3  Xrotation Yrotation Zrotation
				JOINT left_toes
				{
					OFFSET	0	-60	-88.6
					CHANNELS 3  Xrotation Yrotation Zrotation
					JOINT left_foot_ee
					{
						OFFSET	-22.5	-16.5	-42.2
						CHANNELS 3  Xrotation Yrotation Zrotation
						End Site
						{
							OFFSET	1	0	0
						}
					}
				}
			}
		}
	}
	JOINT right_hip
	{
		OFFSET	82.8	-127.5	0.300001
		CHANNELS 3  Xrotation Yrotation Zrotation
		JOINT right_knee
		{
			OFFSET	28.2	-396.7	2.2
			CHANNELS 3  Xrotation Yrotation Zrotation
			JOINT right_ankle
			{
				OFFSET	11.7	-411.3	35.4
				CHANNELS 3  Xrotation Yrotation Zrotation
				JOINT right_toes
				{
					OFFSET	0	-60	-88.6
					CHANNELS 3  Xrotation Yrotation Zrotation
					JOINT right_foot_ee
					{
						OFFSET	22.5	-16.5	-42.2
						CHANNELS 3  Xrotation Yrotation Zrotation
						End Site
						{
							OFFSET	1	0	0
						}
					}
				}
			}
		}
	}
}
MOTION
Frames: 10
Frame Time: 0.02
978.221124698 719.962 -1582.03799979 -27.7912941417 63.4982702116 19.5902811411 6.22202 0.546922 1.83807 6.2238 0.428874 1.86913 6.23556 0.23473 1.90327 6.2309 0.53232 1.84235 -17.9604 13.1904 0.0814596 -18.7936 25.3176 5.37404 -0.0 0.0 -0.0 -10.7755 23.8907 -12.2854 -21.5373 -21.1082 71.7247 1.32109 -33.2003 0.393853 -21.078 -1.19836 2.39885 1.41569 -7.36859 6.44307 -0.0 0.0 -0.0 11.3593 12.9333 -22.8019 -16.061 46.8886 -62.6352 0.501906 13.9625 -0.06146 43.4415 0.540264 5.39203 -0.0227806 -10.1203 -4.0451 0.0 0.0 0.0 20.0691 12.5845 -1.57868 -41.8545 -0.588943 6.25591 33.8877 -3.43104 -4.34385 38.8173 -0.0 -0.0 -0.0 0.0 -0.0 8.27358 32.4274 -0.870065 8.07237 0.415499 1.16743 36.4195 -24.6001 4.799 20.2396 -0.0 -0.0 0.0 0.0 0.0 
968.602850736 724.586 -1582.3657939 -28.2999718244 64.4246582937 20.1925662701 6.34832 0.458409 1.83255 6.35012 0.340891 1.85799 6.35887 0.152361 1.88284 6.35421 0.447759 1.83518 -18.5648 12.7766 -0.0881837 -19.3953 24.6306 5.18121 -0.0 0.0 -0.0 -10.3979 23.8555 -11.7405 -22.3725 -20.4359 72.1372 1.14952 -29.6578 0.304346 -21.3272 -1.21766 2.42428 1.30994 -5.97986 6.31337 -0.0 0.0 -0.0 11.5293 13.2126 -23.1791 -14.7198 46.9198 -62.3384 0.495234 13.784 -0.0598604 43.134 0.522234 5.35707 0.171582 -7.37129 -4.18691 0.0 0.0 0.0 20.4809 8.23685 -0.862283 -38.126 -0.351869 5.73414 30.4031 1.82282 -3.94188 37.8594 -0.0 -0.0 -0.0 0.0 -0.0 7.66307 31.2662 -0.805794 7.21493 0.363586 1.04629 40.043 -23.6646 5.13022 19.2936 -0.0 -0.0 0.0 0.0 0.0 
957.136570618 725.925 -1580.93098012 -27.4461284309 65.2447619943 19.5500549609 6.32971 0.495221 1.83147 6.33149 0.377697 1.85926 6.34147 0.188299 1.88786 6.33682 0.484038 1.83446 -19.3435 12.9087 1.92915 -20.1573 23.8675 7.26848 -0.0 0.0 -0.0 -10.8968 24.0493 -12.3936 -24.0163 -20.0581 72.4211 1.09634 -28.5052 0.278495 -21.5594 -1.23573 2.44788 1.25041 -4.55075 6.50951 -0.0 0.0 -0.0 11.6397 13.4444 -23.4233 -13.7649 46.9508 -62.119 0.53419 14.8222 -0.0694848 42.7559 0.500312 5.31394 0.654649 -4.27216 -6.11252 0.0 0.0 0.0 23.1313 7.256 -0.999494 -34.239 -0.1415 5.1753 29.3679 4.3637 -3.82207 36.1695 -0.0 -0.0 -0.0 0.0 -0.0 6.43836 30.5489 -1.0878 6.50435 0.321945 0.945331 40.3674 -22.9946 5.14104 17.4547 -0.0 -0.0 0.0 0.0 0.0 
943.497321977 726.053 -1563.39661005 -30.8219307276 68.1940435247 23.5882612179 6.35137 0.520776 1.8229 6.35313 0.403745 1.85233 6.36391 0.215666 1.88351 6.35932 0.510374 1.82584 -19.3484 12.5598 1.17887 -20.1504 23.581 6.42419 -0.0 0.0 -0.0 -10.7265 23.8904 -12.2126 -24.603 -19.9091 72.2491 0.94431 -25.069 0.20995 -21.0773 -1.1983 2.39877 1.17952 -4.54753 6.03042 -0.0 0.0 -0.0 11.8983 14.3174 -23.9873 -13.2683 47.0832 -61.4284 0.5674 15.6994 -0.0782264 42.9865 0.513647 5.34026 0.543405 -3.09869 -4.90079 0.0 0.0 0.0 24.3106 5.52516 -1.09783 -29.4316 0.0654169 4.46683 26.564 9.67801 -3.51523 36.6624 -0.0 -0.0 -0.0 0.0 -0.0 5.9321 29.8559 -1.50225 6.11576 0.299705 0.889908 41.4792 -23.8669 5.27071 18.3252 -0.0 -0.0 0.0 0.0 0.0 
925.845986335 720.219 -1543.71166584 -36.7178904063 70.9110106469 29.8788987259 6.65427 0.556545 1.87355 6.65612 0.436221 1.90515 6.66806 0.252988 1.938 6.66325 0.555831 1.87376 -19.9823 11.7227 1.60352 -20.6899 21.7804 6.56198 -0.0 0.0 -0.0 -11.0474 24.1227 -12.5837 -26.0797 -20.1727 72.2419 0.844294 -22.6964 0.169448 -20.9855 -1.19122 2.38938 1.34297 -3.5186 7.56713 -0.0 0.0 -0.0 11.8459 13.5311 -23.8892 -11.2268 47.0621 -60.4726 0.729193 19.8608 -0.127665 42.8421 0.505287 5.32379 0.888149 3.45018 -4.51849 0.0 0.0 0.0 27.4645 0.799173 -1.69076 -28.7433 0.0901458 4.36408 21.0067 10.6451 -2.86038 35.1926 -0.0 -0.0 -0.0 0.0 -0.0 5.11897 27.788 -1.04848 6.55432 0.324832 0.952447 41.6224 -22.9739 5.25639 17.4158 -0.0 -0.0 0.0 0.0 0.0 
898.363841274 717.969 -1520.36891617 -41.9634523318 73.7449137821 35.8446094508 6.68416 0.53969 1.84153 6.68595 0.421437 1.87212 6.69723 0.242373 1.90359 6.69258 0.539917 1.84146 -19.0559 11.0831 1.04478 -19.6533 20.7965 5.56442 -0.0 0.0 -0.0 -12.3881 25.3347 -13.9809 -27.7408 -20.2408 74.1598 0.884088 -23.6508 0.185108 -22.4855 -1.30881 2.54135 1.61889 -1.60189 10.2319 -0.0 0.0 -0.0 11.8137 13.8642 -23.8075 -9.81975 47.3578 -59.1267 0.844254 22.6954 -0.169433 42.4304 0.481676 5.27671 1.81898 11.1583 -7.54677 0.0 0.0 0.0 29.385 0.270111 -3.82574 -24.3205 0.219388 3.6978 18.2654 12.5295 -2.524 34.9491 -0.0 -0.0 -0.0 0.0 -0.0 3.32939 27.2054 -0.742818 5.98261 0.292172 0.870883 42.3686 -22.1847 5.3003 16.1677 -0.0 -0.0 0.0 0.0 0.0 
888.694817795 719.328 -1511.54196078 -43.244324883 74.3982570969 37.4344121775 6.77552 0.574898 1.80096 6.7772 0.459153 1.83388 6.78947 0.286567 1.86863 6.78507 0.578038 1.79996 -18.8497 11.181 1.85665 -19.4128 20.552 6.30946 -0.0 0.0 -0.0 -12.2557 25.1239 -13.8928 -28.4426 -20.1747 74.9069 0.815604 -21.9999 0.158539 -22.8033 -1.33424 2.57316 1.67251 -0.68275 10.9703 -0.0 0.0 -0.0 11.8365 14.1047 -23.8529 -9.08801 47.6124 -59.0301 0.88063 23.5684 -0.183723 41.8849 0.450918 5.21407 2.18359 13.7398 -8.87385 0.0 0.0 0.0 30.7439 -0.195332 -4.57363 -20.6183 0.287776 3.1339 16.1591 13.3301 -2.25555 34.3093 -0.0 -0.0 -0.0 0.0 -0.0 2.60757 27.2178 -0.777169 5.73055 0.278032 0.834822 42.4833 -23.1716 5.34005 15.6636 -0.0 -0.0 0.0 0.0 0.0 
878.52961286 720.863 -1502.91454778 -44.8778521413 75.336529942 39.7820104395 6.64296 0.48166 1.78791 6.64467 0.366935 1.81492 6.65395 0.192106 1.84164 6.64954 0.480501 1.78822 -18.7155 10.7187 1.5014 -19.2353 19.8414 5.75527 -0.0 0.0 -0.0 -12.5601 24.7388 -14.5501 -29.1222 -20.2692 75.1261 0.852015 -22.8826 0.172439 -22.7948 -1.33355 2.57231 1.85335 -0.474052 12.2904 -0.0 0.0 -0.0 11.8377 14.01 -23.8581 -8.53539 47.7597 -58.9232 0.94551 25.097 -0.210458 41.7816 0.445158 5.20217 2.50319 16.4711 -9.78246 0.0 0.0 0.0 31.6939 -0.129492 -5.16411 -18.411 0.311165 2.79606 14.3479 14.1625 -2.02014 34.1554 -0.0 -0.0 -0.0 0.0 -0.0 1.61549 27.547 -1.14426 5.65192 0.273654 0.823562 42.3032 -21.6861 5.28032 15.0811 -0.0 -0.0 0.0 0.0 0.0 
868.915041593 721.515 -1499.67831002 -46.0861244298 76.0203145546 41.3362267853 6.56476 0.483135 1.96985 6.56685 0.356835 1.99658 6.57649 0.161987 2.02173 6.57111 0.479187 1.97081 -19.8044 10.3952 1.78849 -20.3291 19.1221 6.08251 -0.0 0.0 -0.0 -12.6948 24.5482 -14.8553 -29.7791 -20.8405 75.4001 0.858006 -23.0268 0.174775 -22.8122 -1.33495 2.57405 2.08012 -0.638485 13.7829 -0.0 0.0 -0.0 11.7938 13.3382 -23.7756 -7.32938 48.1389 -59.2491 0.986236 26.0374 -0.228035 41.5422 0.431901 5.17457 2.68078 17.3374 -10.5746 0.0 0.0 0.0 32.822 -0.650185 -5.86836 -15.8847 0.321942 2.40863 10.7952 12.979 -1.53635 33.7994 -0.0 -0.0 -0.0 0.0 -0.0 1.22864 26.4538 -1.8614 4.37367 0.204657 0.639679 42.0029 -20.9127 5.23271 14.3963 -0.0 -0.0 0.0 0.0 0.0 
862.465289886 718.863 -1495.73778053 -47.8342631586 77.0532165001 43.1796904409 6.55182 0.447725 2.02853 6.55405 0.317765 2.0529 6.56248 0.11712 2.07403 6.55675 0.443137 2.02954 -19.2198 10.4486 1.28304 -19.7436 19.4581 5.53307 -0.0 0.0 -0.0 -12.9521 24.7046 -15.1649 -29.9495 -21.0378 76.6438 0.835044 -22.4726 0.165896 -22.9746 -1.34802 2.59025 2.05608 0.30569 13.9949 -0.0 0.0 -0.0 11.8175 14.1775 -23.8074 -6.39153 48.2949 -59.5814 1.03917 27.2377 -0.251771 41.8127 0.44689 5.20575 2.89146 18.9618 -11.2129 0.0 0.0 0.0 33.6822 -0.634229 -5.931 -14.995 0.321669 2.27212 10.5497 13.9606 -1.50521 33.9304 -0.0 -0.0 -0.0 0.0 -0.0 0.587231 26.5762 -2.24024 4.0362 0.187129 0.590884 42.0389 -20.6055 5.22791 14.3448 -0.0 -0.0 0.0 0.0 0.0 
